<svg xmlns="http://www.w3.org/2000/svg" xmlns:xlink="http://www.w3.org/1999/xlink" width="76" height="76" viewBox="0 0 76 76">
  <defs>
    <filter id="Bound" x="0" y="0" width="76" height="76" filterUnits="userSpaceOnUse">
      <feOffset dy="4" input="SourceAlpha"/>
      <feGaussianBlur stdDeviation="3" result="blur"/>
      <feFlood flood-color="#e6f4fe" flood-opacity="0.204"/>
      <feComposite operator="in" in2="blur"/>
      <feComposite in="SourceGraphic"/>
    </filter>
  </defs>
  <g id="Icon" transform="translate(10.13 5)">
    <g transform="matrix(1, 0, 0, 1, -10.13, -5)" filter="url(#Bound)">
      <rect id="Bound-2" data-name="Bound" width="58" height="58" rx="8" transform="translate(9 5)" fill="#e6f4fe"/>
    </g>
    <g id="delivery-truck" transform="translate(12.87 -72.939)">
      <path id="Path_137" data-name="Path 137" d="M1.062,105.111V92.235a1.3,1.3,0,0,1,1.3-1.3h12.87a1.3,1.3,0,0,1,1.3,1.3v12.876a.432.432,0,0,1-.432.432H1.494A.432.432,0,0,1,1.062,105.111Zm10.393,4.411a2.687,2.687,0,1,1-2.687-2.687A2.687,2.687,0,0,1,11.455,109.522Zm-1.344,0a1.344,1.344,0,1,0-1.344,1.344A1.344,1.344,0,0,0,10.111,109.522Zm-3.658-2.687H.432a.432.432,0,0,0-.432.432v1.31a.432.432,0,0,0,.432.432H5.258A3.544,3.544,0,0,1,6.453,106.835Zm19.061,2.687a2.687,2.687,0,1,1-2.687-2.687A2.687,2.687,0,0,1,25.514,109.522Zm-1.343,0a1.344,1.344,0,1,0-1.344,1.344A1.344,1.344,0,0,0,24.17,109.522Zm6.094-2.255v1.31a.432.432,0,0,1-.432.432h-3.5a3.546,3.546,0,0,0-7.019,0h-7.04a3.545,3.545,0,0,0-1.195-2.174h6.676V94.482a.864.864,0,0,1,.864-.864H22.7a3.455,3.455,0,0,1,2.863,1.522l2.628,3.893a3.455,3.455,0,0,1,.592,1.933v5.868h1.051A.432.432,0,0,1,30.264,107.267Zm-4.381-8.134-2.1-2.986a.432.432,0,0,0-.353-.183H20.15a.432.432,0,0,0-.432.432v2.987a.432.432,0,0,0,.432.432h5.38A.432.432,0,0,0,25.883,99.133Z" fill="#e6f4fe"/>
    </g>
    <g id="box" transform="translate(-0.256 18)">
      <g id="Group_314" data-name="Group 314" transform="translate(28.277 12.695)">
        <g id="Group_313" data-name="Group 313" transform="translate(0)">
          <path id="Path_138" data-name="Path 138" d="M269.758,281.694a5.19,5.19,0,1,0,5.189,5.19A5.2,5.2,0,0,0,269.758,281.694Zm-.606,7.364-1.953-1.933.952-.962.993.983,2.216-2.229.96.955Z" transform="translate(-264.568 -281.694)" fill="#0490fe"/>
        </g>
      </g>
      <g id="Group_316" data-name="Group 316" transform="translate(17.126)">
        <g id="Group_315" data-name="Group 315" transform="translate(0)">
          <path id="Path_139" data-name="Path 139" d="M27.1,0,17.126,5.761V17.282L27.1,23.043l1.453-.839a6.571,6.571,0,0,1-.789-1.108l-.664.383-.677-.391V11.912L18.48,7.324V6.542l.677-.391L27.1,10.74l3.3-1.9L22.453,4.248l1.354-.782,7.947,4.588,3.3-1.9.677.391v.782l-7.947,4.588v2.737a6.537,6.537,0,0,1,9.3-2.216V5.761Z" transform="translate(-17.126)" fill="#0490fe"/>
        </g>
      </g>
    </g>
  </g>
</svg>
