<svg xmlns="http://www.w3.org/2000/svg" xmlns:xlink="http://www.w3.org/1999/xlink" width="76" height="76" viewBox="0 0 76 76">
  <defs>
    <filter id="Bound" x="0" y="0" width="76" height="76" filterUnits="userSpaceOnUse">
      <feOffset dy="4" input="SourceAlpha"/>
      <feGaussianBlur stdDeviation="3" result="blur"/>
      <feFlood flood-color="#daf6e1" flood-opacity="0.161"/>
      <feComposite operator="in" in2="blur"/>
      <feComposite in="SourceGraphic"/>
    </filter>
  </defs>
  <g id="Icon" transform="translate(10.13 5)">
    <g transform="matrix(1, 0, 0, 1, -10.13, -5)" filter="url(#Bound)">
      <rect id="Bound-2" data-name="Bound" width="58" height="58" rx="8" transform="translate(9 5)" fill="#f6dada"/>
    </g>
    <g id="delivery-truck" transform="translate(12.87 18)">
      <path id="Path_137" data-name="Path 137" d="M29.7,104.781,29.2,92.235a1.3,1.3,0,0,0-1.3-1.3H15.037a1.3,1.3,0,0,0-1.3,1.3v12.876a.432.432,0,0,0,.432.432H25.88C26.118,105.543,29.7,105.019,29.7,104.781ZM18.81,109.522a2.687,2.687,0,1,0,2.687-2.687A2.687,2.687,0,0,0,18.81,109.522Zm1.344,0a1.344,1.344,0,1,1,1.344,1.344A1.344,1.344,0,0,1,20.153,109.522Zm3.658-2.687L25.88,107.9c.239,0,.746-.869.746-.631l.323,1.31c0,.238-.085,2.014-.323,2.014l-1.62-1.582A3.544,3.544,0,0,0,23.811,106.835ZM4.75,109.522a2.687,2.687,0,1,0,2.687-2.687A2.687,2.687,0,0,0,4.75,109.522Zm1.343,0a1.344,1.344,0,1,1,1.344,1.344A1.344,1.344,0,0,1,6.094,109.522ZM0,107.267v1.31a.432.432,0,0,0,.432.432h3.5a3.546,3.546,0,0,1,7.019,0h7.04a3.545,3.545,0,0,1,1.195-2.174H12.507V94.482a.864.864,0,0,0-.864-.864H7.566A3.455,3.455,0,0,0,4.7,95.14L2.074,99.033a3.455,3.455,0,0,0-.592,1.933v5.868H.432A.432.432,0,0,0,0,107.267Zm4.381-8.134,2.1-2.986a.432.432,0,0,1,.353-.183h3.278a.432.432,0,0,1,.432.432v2.987a.432.432,0,0,1-.432.432H4.734A.432.432,0,0,1,4.381,99.133Z" transform="translate(0 -90.939)" fill="#ef577a"/>
    </g>
    <path id="Icon_material-cancel" data-name="Icon material-cancel" d="M7.842,3a4.842,4.842,0,1,0,4.842,4.842A4.837,4.837,0,0,0,7.842,3Zm2.421,6.58-.683.683L7.842,8.524,6.1,10.263,5.421,9.58,7.159,7.842,5.421,6.1,6.1,5.421,7.842,7.159,9.58,5.421l.683.683L8.524,7.842Z" transform="translate(34.439 26.884)" fill="#ef577a"/>
  </g>
</svg>
