<svg xmlns="http://www.w3.org/2000/svg" xmlns:xlink="http://www.w3.org/1999/xlink" width="58" height="59" viewBox="0 0 76 76">
  <defs>
    <filter id="Bound" x="0" y="0" width="76" height="76" filterUnits="userSpaceOnUse">
      <feOffset dy="4" input="SourceAlpha"/>
      <feGaussianBlur stdDeviation="3" result="blur"/>
      <feFlood flood-color="#fed33a" flood-opacity="0.078"/>
      <feComposite operator="in" in2="blur"/>
      <feComposite in="SourceGraphic"/>
    </filter>
  </defs>
  <g id="Icon" transform="translate(10.13 5)">
    <g transform="matrix(1, 0, 0, 1, -10.13, -5)" filter="url(#Bound)">
      <rect id="Bound-2" data-name="Bound" width="57" height="57" rx="12" transform="translate(9 5)" fill="#fef6ca"/>
    </g>
    <g id="airport_shuttle" transform="translate(10.87 12)">
      <rect id="Path" width="36" height="36" fill="rgba(0,0,0,0)"/>
      <path id="Icon-2" data-name="Icon" d="M783,3932h25.824v2.869h-1.119a4.254,4.254,0,0,0-6.37,0H790.489a4.254,4.254,0,0,0-6.37,0H783Z" transform="translate(-777.784 -3913.872)" fill="#fef6ca"/>
    </g>
    <path id="Icon_material-location-searching" data-name="Icon material-location-searching" d="M26.965,14.271a11.486,11.486,0,0,0-10.14-10.14V1.5H14.271V4.131a11.486,11.486,0,0,0-10.14,10.14H1.5v2.554H4.131a11.486,11.486,0,0,0,10.14,10.14V29.6h2.554V26.965a11.486,11.486,0,0,0,10.14-10.14H29.6V14.271ZM15.548,24.487a8.94,8.94,0,1,1,8.94-8.94A8.933,8.933,0,0,1,15.548,24.487Z" transform="translate(12.27 13)" fill="#fed33a"/>
  </g>
</svg>
